<?xml version="1.0" encoding="UTF-8"?>
<svg xmlns="http://www.w3.org/2000/svg" xmlns:xlink="http://www.w3.org/1999/xlink" width="200px" height="200px" viewBox="0 0 200 200" version="1.1">
<g id="surface1">
<path style=" stroke:none;fill-rule:nonzero;fill:rgb(33.333334%,52.549022%,64.313728%);fill-opacity:1;" d="M 32.796875 82.449219 C 32.878906 82.410156 32.957031 82.371094 33.039062 82.335938 C 35.265625 81.285156 37.855469 80.757812 40.8125 80.757812 C 43.769531 80.757812 46.363281 81.285156 48.589844 82.335938 C 50.8125 83.382812 52.675781 84.789062 54.171875 86.550781 C 55.664062 88.308594 56.789062 90.335938 57.535156 92.621094 C 58.285156 94.90625 58.660156 97.28125 58.660156 99.753906 C 58.660156 102.226562 58.285156 104.605469 57.535156 106.890625 C 56.789062 109.175781 55.664062 111.199219 54.171875 112.960938 C 52.675781 114.722656 50.8125 116.117188 48.589844 117.152344 C 46.363281 118.183594 43.769531 118.699219 40.8125 118.699219 C 37.855469 118.699219 35.265625 118.183594 33.039062 117.152344 C 32.570312 116.933594 32.121094 116.703125 31.6875 116.453125 C 43.285156 126.96875 65.617188 134.089844 91.257812 134.089844 C 112.117188 134.089844 130.8125 129.867188 143.292969 122.449219 C 129.632812 134.867188 105.269531 143.628906 77.449219 143.625 C 34.671875 143.617188 -0.00390625 124.050781 0 99.925781 C 0.00390625 75.796875 34.683594 56.242188 77.460938 56.25 C 105.394531 56.253906 129.820312 65.042969 143.445312 77.546875 C 130.964844 70.085938 112.195312 65.785156 91.257812 65.785156 C 66.410156 65.785156 44.675781 72.46875 32.796875 82.449219 Z M 28.640625 105.183594 C 29.128906 106.960938 29.894531 108.5625 30.941406 109.984375 C 31.984375 111.410156 33.324219 112.554688 34.960938 113.417969 C 36.597656 114.28125 38.546875 114.714844 40.8125 114.714844 C 43.078125 114.714844 45.027344 114.28125 46.664062 113.417969 C 48.300781 112.554688 49.640625 111.410156 50.6875 109.984375 C 51.730469 108.5625 52.496094 106.960938 52.984375 105.183594 C 53.472656 103.402344 53.71875 101.597656 53.71875 99.769531 C 53.71875 97.9375 53.472656 96.132812 52.984375 94.355469 C 52.496094 92.574219 51.730469 90.972656 50.6875 89.550781 C 49.640625 88.125 48.300781 86.984375 46.664062 86.117188 C 45.027344 85.253906 43.078125 84.820312 40.8125 84.820312 C 38.546875 84.820312 36.597656 85.253906 34.960938 86.117188 C 33.324219 86.984375 31.984375 88.128906 30.941406 89.550781 C 29.894531 90.972656 29.128906 92.574219 28.640625 94.355469 C 28.152344 96.132812 27.910156 97.9375 27.910156 99.769531 C 27.910156 101.597656 28.152344 103.402344 28.640625 105.183594 Z M 66.007812 94.785156 L 66.007812 97.917969 L 66.089844 97.917969 C 66.726562 96.636719 67.734375 95.703125 69.105469 95.121094 C 70.480469 94.539062 71.988281 94.25 73.636719 94.25 C 75.464844 94.25 77.058594 94.578125 78.414062 95.234375 C 79.773438 95.890625 80.898438 96.777344 81.800781 97.894531 C 82.699219 99.011719 83.378906 100.300781 83.835938 101.761719 C 84.292969 103.222656 84.523438 104.773438 84.523438 106.410156 C 84.523438 108.050781 84.300781 109.601562 83.859375 111.0625 C 83.417969 112.523438 82.746094 113.796875 81.847656 114.882812 C 80.945312 115.972656 79.816406 116.828125 78.460938 117.453125 C 77.101562 118.078125 75.527344 118.394531 73.726562 118.394531 C 73.144531 118.394531 72.5 118.332031 71.78125 118.214844 C 71.066406 118.09375 70.355469 117.902344 69.65625 117.632812 C 68.953125 117.363281 68.289062 116.996094 67.664062 116.535156 C 67.039062 116.074219 66.515625 115.5 66.089844 114.8125 L 66.007812 114.8125 L 66.007812 126.746094 L 62.085938 126.746094 L 62.085938 94.785156 Z M 79.929688 103.007812 C 79.640625 101.980469 79.203125 101.0625 78.609375 100.257812 C 78.015625 99.453125 77.253906 98.8125 76.328125 98.335938 C 75.398438 97.859375 74.308594 97.621094 73.0625 97.621094 C 71.753906 97.621094 70.644531 97.875 69.734375 98.382812 C 68.820312 98.890625 68.074219 99.550781 67.496094 100.371094 C 66.917969 101.191406 66.5 102.121094 66.242188 103.164062 C 65.980469 104.207031 65.851562 105.265625 65.851562 106.335938 C 65.851562 107.46875 65.988281 108.566406 66.265625 109.621094 C 66.535156 110.679688 66.972656 111.609375 67.5625 112.417969 C 68.15625 113.222656 68.925781 113.867188 69.867188 114.359375 C 70.8125 114.851562 71.953125 115.097656 73.292969 115.097656 C 74.628906 115.097656 75.746094 114.84375 76.644531 114.339844 C 77.542969 113.832031 78.265625 113.160156 78.8125 112.328125 C 79.359375 111.492188 79.753906 110.539062 80 109.464844 C 80.242188 108.394531 80.363281 107.292969 80.363281 106.160156 C 80.363281 105.085938 80.21875 104.035156 79.929688 103.007812 Z M 104.527344 116.425781 C 102.753906 117.738281 100.523438 118.394531 97.835938 118.394531 C 95.941406 118.394531 94.296875 118.09375 92.90625 117.5 C 91.515625 116.902344 90.347656 116.066406 89.398438 114.996094 C 88.453125 113.921875 87.742188 112.640625 87.265625 111.148438 C 86.792969 109.660156 86.527344 108.035156 86.464844 106.277344 C 86.464844 104.519531 86.742188 102.910156 87.292969 101.449219 C 87.84375 99.988281 88.613281 98.71875 89.609375 97.648438 C 90.601562 96.574219 91.78125 95.738281 93.140625 95.144531 C 94.5 94.546875 95.992188 94.25 97.613281 94.25 C 99.726562 94.25 101.476562 94.675781 102.867188 95.527344 C 104.261719 96.378906 105.375 97.460938 106.21875 98.773438 C 107.058594 100.089844 107.640625 101.523438 107.960938 103.074219 C 108.28125 104.628906 108.414062 106.105469 108.351562 107.507812 L 90.625 107.507812 C 90.59375 108.519531 90.714844 109.480469 90.988281 110.386719 C 91.261719 111.296875 91.703125 112.097656 92.316406 112.800781 C 92.925781 113.5 93.703125 114.054688 94.648438 114.472656 C 95.59375 114.886719 96.707031 115.097656 97.988281 115.097656 C 99.632812 115.097656 100.984375 114.726562 102.035156 113.976562 C 103.085938 113.230469 103.777344 112.097656 104.113281 110.574219 L 107.964844 110.574219 C 107.445312 113.167969 106.296875 115.117188 104.527344 116.425781 Z M 103.574219 101.59375 C 103.226562 100.789062 102.753906 100.097656 102.160156 99.519531 C 101.566406 98.9375 100.863281 98.476562 100.058594 98.136719 C 99.25 97.792969 98.359375 97.621094 97.386719 97.621094 C 96.378906 97.621094 95.472656 97.792969 94.667969 98.136719 C 93.859375 98.476562 93.167969 98.945312 92.589844 99.539062 C 92.007812 100.136719 91.550781 100.828125 91.21875 101.617188 C 90.882812 102.402344 90.683594 103.246094 90.625 104.136719 L 104.195312 104.136719 C 104.132812 103.246094 103.925781 102.394531 103.574219 101.59375 Z M 114.636719 94.785156 L 114.636719 98.457031 L 114.710938 98.457031 C 116.335938 95.652344 118.914062 94.25 122.441406 94.25 C 124.007812 94.25 125.308594 94.457031 126.355469 94.875 C 127.398438 95.292969 128.242188 95.875 128.886719 96.625 C 129.53125 97.367188 129.980469 98.257812 130.242188 99.285156 C 130.503906 100.316406 130.632812 101.457031 130.632812 102.710938 L 130.632812 117.933594 L 126.710938 117.933594 L 126.710938 102.273438 C 126.710938 100.84375 126.28125 99.710938 125.425781 98.875 C 124.566406 98.039062 123.390625 97.621094 121.890625 97.621094 C 120.699219 97.621094 119.664062 97.800781 118.792969 98.160156 C 117.917969 98.515625 117.191406 99.023438 116.613281 99.679688 C 116.03125 100.335938 115.59375 101.105469 115.304688 101.984375 C 115.011719 102.863281 114.867188 103.824219 114.867188 104.871094 L 114.867188 117.933594 L 110.945312 117.933594 L 110.945312 94.785156 Z M 157.746094 117.679688 C 155.976562 118.410156 154.1875 118.777344 152.382812 118.777344 C 149.535156 118.777344 146.972656 118.289062 144.699219 117.324219 C 142.425781 116.355469 140.507812 115.019531 138.945312 113.320312 C 137.382812 111.621094 136.183594 109.625 135.351562 107.328125 C 134.515625 105.035156 134.101562 102.558594 134.101562 99.90625 C 134.101562 97.191406 134.515625 94.664062 135.347656 92.335938 C 136.179688 90.007812 137.371094 87.976562 138.929688 86.242188 C 140.492188 84.507812 142.40625 83.148438 144.679688 82.160156 C 146.953125 81.175781 149.511719 80.683594 152.363281 80.683594 C 154.269531 80.683594 156.121094 80.964844 157.90625 81.527344 C 159.695312 82.089844 161.308594 82.914062 162.75 84.003906 C 164.191406 85.09375 165.382812 86.4375 166.320312 88.035156 C 167.257812 89.632812 167.832031 91.464844 168.039062 93.535156 L 160.226562 93.535156 C 159.742188 91.5 158.800781 89.972656 157.414062 88.953125 C 156.023438 87.9375 154.339844 87.429688 152.363281 87.429688 C 150.519531 87.429688 148.957031 87.777344 147.675781 88.472656 C 146.390625 89.171875 145.347656 90.105469 144.546875 91.277344 C 143.75 92.453125 143.167969 93.785156 142.804688 95.28125 C 142.4375 96.777344 142.257812 98.324219 142.257812 99.921875 C 142.257812 101.453125 142.441406 102.9375 142.804688 104.382812 C 143.171875 105.828125 143.753906 107.128906 144.550781 108.285156 C 145.351562 109.4375 146.394531 110.363281 147.679688 111.0625 C 148.96875 111.757812 150.53125 112.109375 152.375 112.109375 C 155.085938 112.109375 157.179688 111.441406 158.65625 110.101562 C 160.136719 108.765625 160.996094 106.828125 161.242188 104.289062 L 153.011719 104.289062 L 153.011719 98.3125 L 168.613281 98.3125 L 168.613281 117.960938 L 163.421875 117.960938 L 162.589844 113.839844 C 161.132812 115.671875 159.515625 116.953125 157.746094 117.679688 Z M 181.875 81.601562 L 181.875 111.1875 L 200 111.1875 L 200 117.933594 L 173.714844 117.933594 L 173.714844 81.601562 Z M 181.875 81.601562 "/>
</g>
</svg>
